<?xml version="1.0" standalone="no"?>
<!DOCTYPE svg PUBLIC "-//W3C//DTD SVG 20010904//EN"
 "http://www.w3.org/TR/2001/REC-SVG-20010904/DTD/svg10.dtd">
<svg version="1.0" xmlns="http://www.w3.org/2000/svg"
 width="1280.000000pt" height="1280.000000pt" viewBox="0 0 1280.000000 1280.000000"
 preserveAspectRatio="xMidYMid meet">
<metadata>
Created by potrace 1.16, written by Peter Selinger 2001-2019
</metadata>
<g transform="translate(0.000000,1280.000000) scale(0.100000,-0.100000)"
fill="#000000" stroke="none">
<path d="M5959 11947 c-51 -15 -121 -53 -170 -94 -45 -38 -107 -137 -124 -198
-20 -73 -25 -565 -25 -2579 l0 -1728 -2182 3 -2183 2 -58 -22 c-105 -41 -189
-122 -241 -231 l-31 -65 0 -526 0 -525 34 -67 c65 -129 187 -216 329 -237 41
-6 723 -10 1762 -10 932 0 1887 -3 2122 -7 l428 -6 2 -2141 3 -2141 22 -55
c33 -80 89 -149 161 -197 105 -71 108 -71 614 -78 486 -7 540 -4 634 39 112
51 224 197 238 309 9 72 16 1344 16 2840 l0 1427 2153 -2 2152 -3 68 32 c118
56 210 171 237 300 7 31 10 226 8 538 l-3 490 -32 68 c-56 117 -169 208 -296
237 -29 6 -579 10 -1574 11 -840 1 -1794 4 -2119 7 l-590 4 0 2151 1 2152 -32
68 c-42 89 -121 168 -210 210 l-68 32 -500 2 c-374 2 -511 -1 -546 -10z"/>
</g>
</svg>
